<mxfile host="65bd71144e">
    <diagram id="CRCbpOOQzjafJWiLWKO0" name="Page-1">
        <mxGraphModel dx="1119" dy="779" grid="1" gridSize="10" guides="1" tooltips="1" connect="1" arrows="1" fold="1" page="1" pageScale="1" pageWidth="850" pageHeight="1100" math="0" shadow="0">
            <root>
                <mxCell id="0"/>
                <mxCell id="1" parent="0"/>
                <mxCell id="42" value="" style="rounded=0;whiteSpace=wrap;html=1;strokeColor=#999999;fillColor=#FFFFFF;" parent="1" vertex="1">
                    <mxGeometry y="60" width="820" height="680" as="geometry"/>
                </mxCell>
                <mxCell id="43" value="&lt;font color=&quot;#9999ff&quot;&gt;AWS Cloud&lt;/font&gt;" style="sketch=0;outlineConnect=0;gradientColor=none;html=1;whiteSpace=wrap;fontSize=12;fontStyle=0;shape=mxgraph.aws4.group;grIcon=mxgraph.aws4.group_aws_cloud;strokeColor=#9999FF;fillColor=none;verticalAlign=top;align=left;spacingLeft=30;fontColor=#AAB7B8;dashed=0;" parent="1" vertex="1">
                    <mxGeometry x="50" y="280" width="710" height="420" as="geometry"/>
                </mxCell>
                <mxCell id="21" value="" style="outlineConnect=0;dashed=0;verticalLabelPosition=bottom;verticalAlign=top;align=center;html=1;shape=mxgraph.aws3.s3;fillColor=#E05243;gradientColor=none;" parent="1" vertex="1">
                    <mxGeometry x="640" y="471.18" width="76.5" height="93" as="geometry"/>
                </mxCell>
                <mxCell id="47" value="" style="edgeStyle=none;html=1;strokeColor=#1A1A1A;fontColor=#9999FF;" parent="1" source="31" target="21" edge="1">
                    <mxGeometry relative="1" as="geometry"/>
                </mxCell>
                <mxCell id="31" value="" style="outlineConnect=0;dashed=0;verticalLabelPosition=bottom;verticalAlign=top;align=center;html=1;shape=mxgraph.aws3.cloudfront;fillColor=#F58536;gradientColor=none;" parent="1" vertex="1">
                    <mxGeometry x="640" y="320" width="76.5" height="93" as="geometry"/>
                </mxCell>
                <mxCell id="32" value="VPC" style="points=[[0,0],[0.25,0],[0.5,0],[0.75,0],[1,0],[1,0.25],[1,0.5],[1,0.75],[1,1],[0.75,1],[0.5,1],[0.25,1],[0,1],[0,0.75],[0,0.5],[0,0.25]];outlineConnect=0;gradientColor=none;html=1;whiteSpace=wrap;fontSize=12;fontStyle=0;container=1;pointerEvents=0;collapsible=0;recursiveResize=0;shape=mxgraph.aws4.group;grIcon=mxgraph.aws4.group_vpc;strokeColor=#248814;fillColor=none;verticalAlign=top;align=left;spacingLeft=30;fontColor=#AAB7B8;dashed=0;" parent="1" vertex="1">
                    <mxGeometry x="80" y="320" width="430" height="370" as="geometry"/>
                </mxCell>
                <mxCell id="33" value="Private subnet" style="points=[[0,0],[0.25,0],[0.5,0],[0.75,0],[1,0],[1,0.25],[1,0.5],[1,0.75],[1,1],[0.75,1],[0.5,1],[0.25,1],[0,1],[0,0.75],[0,0.5],[0,0.25]];outlineConnect=0;gradientColor=none;html=1;whiteSpace=wrap;fontSize=12;fontStyle=0;container=1;pointerEvents=0;collapsible=0;recursiveResize=0;shape=mxgraph.aws4.group;grIcon=mxgraph.aws4.group_security_group;grStroke=0;strokeColor=#147EBA;fillColor=#E6F2F8;verticalAlign=top;align=left;spacingLeft=30;fontColor=#147EBA;dashed=0;" parent="32" vertex="1">
                    <mxGeometry x="90" y="91.32" width="330" height="267.36" as="geometry"/>
                </mxCell>
                <mxCell id="38" value="" style="rounded=0;whiteSpace=wrap;html=1;fillColor=#EBEBEB;strokeColor=#CCCCCC;" parent="33" vertex="1">
                    <mxGeometry x="60" y="59.86" width="260" height="190.14" as="geometry"/>
                </mxCell>
                <mxCell id="37" value="" style="sketch=0;points=[[0,0,0],[0.25,0,0],[0.5,0,0],[0.75,0,0],[1,0,0],[0,1,0],[0.25,1,0],[0.5,1,0],[0.75,1,0],[1,1,0],[0,0.25,0],[0,0.5,0],[0,0.75,0],[1,0.25,0],[1,0.5,0],[1,0.75,0]];outlineConnect=0;fontColor=#232F3E;gradientColor=#F78E04;gradientDirection=north;fillColor=#D05C17;strokeColor=#ffffff;dashed=0;verticalLabelPosition=bottom;verticalAlign=top;align=center;html=1;fontSize=12;fontStyle=0;aspect=fixed;shape=mxgraph.aws4.resourceIcon;resIcon=mxgraph.aws4.ec2;" parent="33" vertex="1">
                    <mxGeometry x="60" y="59.86" width="40.14" height="40.14" as="geometry"/>
                </mxCell>
                <mxCell id="40" value="" style="rounded=0;whiteSpace=wrap;html=1;strokeColor=#B3B3B3;fillColor=#b0e3e6;" parent="33" vertex="1">
                    <mxGeometry x="115" y="120.02" width="190" height="119.98" as="geometry"/>
                </mxCell>
                <mxCell id="39" value="" style="sketch=0;aspect=fixed;html=1;points=[];align=center;image;fontSize=12;image=img/lib/mscae/Docker.svg;strokeColor=#666666;" parent="33" vertex="1">
                    <mxGeometry x="115" y="120.02000000000004" width="50" height="41" as="geometry"/>
                </mxCell>
                <mxCell id="53" value="EC2" style="text;html=1;strokeColor=none;fillColor=none;align=center;verticalAlign=middle;whiteSpace=wrap;rounded=0;fontSize=12;fontColor=#e5770d;" parent="33" vertex="1">
                    <mxGeometry x="100.13999999999999" y="59.860000000000014" width="60" height="30" as="geometry"/>
                </mxCell>
                <mxCell id="57" value="" style="shape=image;verticalLabelPosition=bottom;labelBackgroundColor=default;verticalAlign=top;aspect=fixed;imageAspect=0;image=data:image/png,iVBORw0KGgoAAAANSUhEUgAAAQAAAAEACAYAAABccqhmAAAAAXNSR0IArs4c6QAAH19JREFUeAHtnQlwVFXWx7sKoTuIluM+QuGQ10xY0q8DCSAUxACDFOsHAkohm8gyovCJCigioOKwqgiKDoiICLgQRwyMgCOogKAswyqGPSCIsiSsSQjkfN950BibvJfuty//ruqku99+z/n/7rn33Xeuz2fmKzW1vC8U+lMgNbFqeTFYNyAGHwkkB0dXEIPzKoSENf6QsDEgBk8kiALhjTJwmw+wb7OPs6+zz7PvswYkLaQmVmVt+FgjbntVrJN0V0D8a5NAWOgfEIUZgZCwIUEUit1mYFwPoKXSB4pZE5I2JI38tYmvTvA2Z3MgI+O6SqKQLIk+RZifIAb3JIhCkcoCQkSAqMgrPlDEWqkYFmazdlhDvoyM65wDgy6+cuVrVU/xi8KkgCisTQgLJyF61IzwARU+EBZOsoZYS6wpXxdfOXuDQBRu94vClISwcCAQEvJhdBVGR03vlZo+5uuUtBQWDrC2fKJwu70gwFRKTr7DnywM8ouJByB6iB4+YJwPsMZYa6w56yOCYNBfMSS08icHsxLCQgEMb5zhUbYo26s+EBYKWHOsPV8w6LckIrg1KekGf7IwNBAWsq+eGMLXmMM6lBkErdUHWHusQdaiqRBIECtX8YeqTQuEg6e0XgS2hxDgA+p9gDXIWmRNmgIBf1K1pISwkIlOPvVGg8Oj7PT0gSudhJmsTeMgwLf3aifWC4QSl+t58tgXxAAf0McHWJusUUM6ByXxh4U1MJY+xkI5ohyN8IFAWFgjQUDPUIBDC9T8cFgjHBb71N+vWKu6NQe4c4Hb/DCU/oZCmaJMDfMBSbMaOwalW33c249Rfbi9h1u8jvIB1izfHVB/izAY9F++z49bfYZRGqJylKic5gfSLcJk4an4Bwt18ZXjUUYY5IMQ1WlOj/P9o88GwsJ2f0r1FvHdGZDG9gezUJh/LEyUB8rDiT7Aw4alZwdivTPgF4XBGNsPZ3eis+OcS/FbfnZAFAbHpn/pkV481QdHKsWR0Gfh2D4Lfoqw7EeJu/jKSc/zw9CONTTABXDJ+YCUT0ApqQhnHeFkHnI7wO9wLviAg30gLByQMguV2hbIyLjOLwqTcc/fwQZG5IbITcEHpLEBojC51ByDUgJPzuGnsAMsAxzgA872Ac4xKCUajY4C/GFhABJ4Otu4ECfsV6YPhIWTrPU/6F/K2y+l7kYBllmAiJAQZjvcBzjl+B/mHeBJO67k7YdxHW5cAAyVWNk+ENzDmr8cBaSmlpfCf0zaAfgBfl7xgSKpGSBNQ9aw9s0BUZhZNjVAVpQRfMAtPsCa9zWsfbOPJ+rkCQvdcmG4DogUPlC2D0gT8fKEpDwzKSbqLLvA4FQoI5f5QDFr3xcQg31ddmFeacfhOtFnockHWPsMgDEAAGo3+ID3fIC176sg8tTd3rt4XDNs7nUfYO37KoSQ6tvrjoDr9yYMWfs+vyhsggN40wFgd2/bnbXPfQAn4AjedgTY35v2Z+37YHxvGh92h93ZBwAAdIBqupUEkDgbJAAAAAAAeNgHAAAPGx+1t7Nrbz3sBwAAAIgAPOwDAICHja9HDYJ9ODuKAAAAAEQAHvYBAMDDxkft7ezaWw/7AQAAACIAD/sAAOBh4+tRg2Afzo4iAAAAABGAh30AAPCw8VF7O7v21sN+AAAAgAjAwz4AALjA+L2GDaY358425T1tzizq/tTjmqCR1DKdnp30sinny+Xy2rszNJ2vHjWtXfcBALgAALM//YjMehUVFdGMj+ZpElT6Q/fThm1bzDplOnv+nKbztat49TgvAAAAiEuIAIC7+g0AAAAAAHCBD6iNBgAAFxgfTQBlhqEJIB+1AAAAgLJ6opaiCSAvJrW1sJXbAQAAQJTElb8CAAAAelRtBg00AZShhSaAPLQQAdhMzGrCQQAAAFDjN7wNAAAAKKsnaimaAPK1qVoRWrkdAAAARElc+SsAAACgD8Bm0EATQBla6AOQhxYiAJuJWU04CAAAAGr8hrcBAAAAZfVELUUTQL42VStCK7cDAACAKIkrfwUAAAD0AdgMGmgCKEMLfQDy0EIEYDMxqwkHAQAAQI3f8DYAAACgrJ6opWgCyNemakVo5XYAAAAQJXHlrwAAAIA+AJtBA00AZWihD0AeWogAbCZmNeEgAAAAqPEb3gYAAACU1RO1FE0A+dpUrQit3A4AAACiJK78FQAAANAHYDNooAmgDC30AchDCxGAzcSsJhwEAAAANX7D2wAAAICyeqKWogkgX5uqFaGV2wEAAECUxJW/AgAAAPoAbAYNNAGUoYU+AHloIQKwmZjVhINOA0D9zm3osy+X0p6c/aa8t2bvRKUl4+cAgEzBqBGiVds4DQA3169NyW2aUb1OrU15p3ZsBQDI+DkAIFMwVolZzXGdBgA114ht5MN4LWUDAAAAyg3oqKV6dAJqcVhsqy8IAAAAIEriyl8BAH0FaDXQAAAAQFnxUUsBAAAAHSo2gwb6ANwlSjOjAkQANhOzGuMDAACAGr/hbQAAACAqyFf+iiaAu2ADAAAAyoqPWgoAAADoA7AZNNAEcJco1YbzarZDBGAzMasxIgAAAKjxG94GALABAK6vU51uSqtJN6XVUnjXJF6vNEMDAABAaX4Ry28AgAkAqFQ3iaqkp1Ht1k0p7f5WlP7Q/XTfw92o48A+1HHgI9R7+BAa8co4GjVlouz7mUkvU69hg6X1W/bpJu2jdpumdHdGffrg80+jWurGfUUfgLtgAwAYAIBKdZIouW0zavVId+r33FAaNWUSzVq4gL74ZgWt27yJdufsp2MnT1BxcbEqpZ7IzZWeolv27df0/mcLafuun1TtR81GegDg1ntC1KBzW2re6wFT3k17dC41coqlhnT7OgCATgC4IbUGpXZoSQPHjJBEuWLtGtqxexedyMuli5cuqdGaLbfRAwAcBS1YvIi27Nxhypuh63Yhq70+AEAjAGq2zqBh41+ipd+upJ17d2uq2W2p+KiT0gMA3ATasG1L1J6N+4qEIPLNFgAgTgBUqlOd/ty4LrV4uCtNnzeHck/lUUFhIV1SGc4b5/bG7BkAkBeT2lrYyu0AgDgAUKNlOvUcOoiWrPyKTp89a4zCbL5XAAAA8Fx7qnJ6GnUd8qiUxurMOW8KP8IlAAAA8AwAbkytSa379aD3Fy2kQ78cUd1rHxGPG/4DAACAJwDwp3q1aNCLz1P2/r10oeiCG7SryzUAAACAqwHA9/Brtc6gxSv/Q/kFBaTuTr0uWrPlTgAAAMC1ALjtHpE6PdaXsvfthfBl8AMAAACuBMCdjerQkLGjafeB/XTJRQN3ZHSs+mcAAABwHQC45v/HW1Oljj7VyvDIhgAAAOA6AEx65y3KO33aIxLWdpkAAADgGgDwI7ijX59E5/PPa1OFh7YGAAAAVwCAw/7HxoygX48f85B8tV8qAAAAOB4AXPP3GvYE7TuUo10RHtsDAAAAOBoAFVOC1LhrB1qzcT16+1XACwAAABwNgDsb16HZn35MhRcwuk+F/gkAAAAcCwCu/YeOf4kuQPxqtC9tAwAAAI4FgNi+BeXm5al2fmxIiADieHzcyuf8Yz22Z/IB3Fy/Nr3zyXxXpeeyAkiIABABODIC6DyoPx3+9agVminzmGfPnaMf9+yiFWtX04eLF0mZhjjbEI9OnDDjTZo+7z3pt/lZ/6KV69bQzj27LQMZAAAAOA4A1ZrdQ5nLllDRxYtlitGsFfIL8mn56m+I03236deT6nduQ7XbNCM+1z83qSu9OWq5pUGylIKMf+NlnG2YM+q27deTRr42gZat+ppOmtisAQAAAEcBgDv+OI3Xz0d/MUvbssfhOw+cWGT6B+9RuH0L4sFInE2YzzHWNlvJ9W5MrSHtY57D5gVAUlD7QMT1fQBVM+rRnH99IitKsxbsO5hDU+fMkmrwkiLW47PTZgYCAAAAVTVevGLhmrVt/56W1v7c7Fi98Qfq9Hg/w64ZAFDGONKCywPH1REAt5/H//MNZe8wcCl37nHfQ5NuHVSH+bFADwBQNiIA4FEAJDZvSFt2/qjsHQYtPZ+fT+9mfkQ8f5/cpJ6xiDuWdQAAZSMCAB4FQJt+PSwZ73/x4kWpd57FH4uAta4DAAAAan3I1U2AmR/PV/YMg5bu2J1NoXbNTRE/Gx4AUDYkIgAPRgA8A+3BI4eVPcOApZxcpO+Ip00TPwBQthEBAA8CgKeeLrxQWLZ36LxG1orlxAlG1YZkarZDBKBsRADAgwB4evyL0oMryq6h79LTZ85Qx4GPGNrjXxogAABlOwIAHgTAJ18sMXXGXp5AZEHWZ9Jw3dJEauRvAAAAoNa/XNkJeGuDEG3L3qnsFTov5azCA0YNN/yWX2mGBgCUjYkIwGMRwN96P0g5h39W9gqdl67fupmadO1oats/AgMAQNmYAIDHANDn2SfptxPHlb1C56X8GG/lJqkAQAwJM/AsgLwgI1A3678rmwAjX51Ap86YN9HHmbNnafTrk03v/Is4CSIAZZojApAHjisB8Oqsf9L5gnxlr9Bx6f6fDxn6sE9E6HL/AQBlYwIAHgLA9SnV6eN/Zyl7hM5Lt+/KpiZdO1gS/jMUAABlgwIAHgJA5fRUWrLyP8oeofPStf/dSHc3bQAAxND+Z2ChD0BekHJRnlG/u64JULPVvbRi3RqdJa68u6/WrrZM/IgAlG3DSxEByAMHACjbfxTX4IQfnKzTKELHsl80ARRNBAAoRGbuA0DrDClzrrJL6Le0oLCQ3pj7LgCg4GTREEMTQL5Gji4ro7+7DgD1O7WhdZs36qfwMvbEAJj2PgAQj6MCAACAYTXmfX26EffKm/UCAOJ3ZgAg/jKLB7DxrOu6CAAAMBZ9mBfAPuKNR+hy67oOAJebAJuMVUGJvSMCiF8QiADiLzM5AWv93XUAqGVyJyDn/1uweJFhTZpYDIy7ACWIXMpH3AaUB47rAIBxAKUoQMef0ASQF1MssLbbOgCADuLgiT/+3NjcNGAlHQkRgLIREQHIQ8t1APhL0wa09NuVyh6h81JOPtLwgXaWNQMAAGWDAgAeAsANdZPoky8WK3uEzksP/HyIOg8ybuqvkrV9aZ8BAGWDAgAeAgALZPq8OcQz8Zr1On32DHEOgtLEacZvAICypQEAjwHghamv0On/T9Jh5mvuoky6raFoCQQAAGVLAwAeA8CgF0fSibxcZa/QeSk/EtzwgfYAQAzPBGAcgLwgzYgYSx7DdZ2AfHGcm//w0V90lrjy7jgFWf+Rw5AVGACwpBIoKep4PrsSADwYKHv/XmXFGrB0ftZn9Jdm5icGQRNA2ZhoAshHHK4EAE/HvWrD91RczNN1mPfiuQH+59E+picHBQCUbQwAeAwAHAJNfudt4mG6Zr+WrfqaqtybZmoYCAAoWxkA8CAAegwdRBeKzLsVWNIFh00YCwAo9AWgE1BekPG03/VY15VNAC6Yas3uMXVugJIA2H/oILXr38s0CCACKFn6135GBCAPHNcCgCFgdnLQiOtdvHSJ1mxcTxndO5kCAQAgUvKl/wcAPAqAJ18eY3pHYMQFuf9h446t1G5AL6pUN8lQEAAAkVIv/T8A4FEA1GiZbvocgdEuuPdgDg0cM4LuMnDeQKcBgCdv3Wri7M0AgEcBcFeTuvThks+jNWn690jm4NZ9u9OdBjw27DQAPPjE3+nIb7+aZgcAwKMA4NC79/An6GRenmnOJnegi5cu0k/79tA7n8ynbk8OpKr31qOKCj3l8fTwAgBypX75dwDAowBgESW3aUZLvzE3P4CSO164cIEO/XKE1m3eRFPfn0Xdn3qMeOTiDak14uon4PWb9+xCj40ZQeu3bVY6pK7L9MgIhAhAXpDxgF+PdV19F4ALiEcFDh3/IvEU3nZ7cdOAnyE4dvIEHT32G33zw1rKWrGcps97j8a+OeUPb57x+NPl/6YlX39Fu3P2S+vn5uXRmXNniWcnMusFANhHvABAjCF0qG1z+nLNt3Tp0iWzdOLa4wAAAEBcoaoelNJjHwNHP0vHc0+6VphmXRgAAAA4EgBV0tOIn9ZDFKANFXoAoN/IoXT23DltJxLH1ugElIeW6/sASkYPafe3otxT1t8RiMN3bbeqHgAYMnaUqdcFAAAAUtRSMSVIz0x8mS4UFZnqgG46GAAgL6aSlY1TPnsqAmCj3NEwhd784D3iHni84i8BrQC4PiUo3ZWJ/8jqt0AEIA8tzwGAIRBu30KaO4CdGa/4SkArAG5tEKKJM96M76Aa1+bOX6fUyGafpycBwGMDeFjuph3b6FIxbg3Goy+tAOAZlN78YHY8h9S87n9/3A4AyNwy9yQAmLI3pdWkDo/2oV3792l2MC/tQCsAKqen0cyP55taZKs3/AAAAADXtoP4WYGmPbvQkV+PWvbYsKlK0OFgWgGQ1DJdGs2ow6nEvAsA4FrfjzQ1PBsBRAqA/zft0Zm+3/JfdAzGICmtAODnHv7z3aoYjqTfKgAAAKAYAvLtwbT7W9O8rH8Rj6/HS74EtAIgtWMr2vLTj/IHMGDJ8tXfKNq/ZGXgtc+IAEq0jYItGtPzr02kw7+aO6mIAT5v2C61AqBx1w6m5gLggpi18EMAoISfl4QcABBVMLfeE6L2A3pL8woYpiIH71grADgbkNnZmvmx65JOj8+/NwkAgCgAsHNwkyD4t0Y0+vVJdPDIYUvmF7ArI7QAgG+/9hw6yPRLm/LeTACgFD9nXwcAZAomUktwm/XdhR9S9r696CQkIi0AuDG1Br0w7RXTAfDo6GcBABk/BwBkCiYCgMh/nvmXhxBv2bnDlslFzFKVFgDcUj+ZMpf926xTvXocTgsXsSP+/x7+c1kAADECgAuLa7DmPR+gEZPH0eKVX9Ivx37z3PgBHlY77u1pqgR1W0NRGn15VZkmfWjdt4eq8/UCLACAOAAQcQgeRVizVQbd93BXeu7V8bRu80YqvGDNNGRGaohTla3ftoXe/2yhNH6fa1IWE9/Lj5RFPP85S/O5/PNGnnKp+w61a67qfOO5NqeuCwCoAEBJY9+UVovuzqhPjR78H3ryH2No4RdLpMjgfEG+BAWeIMTsWYpLVcGVHzkhCucQZGAVFBbQufPnpeQc323aQJnLltCL016lHk8PIu77qN6iMd3dtD7d2SiFOHznTryS1x7v5/Z/7610aoYsO5GbS9Xva6LpvOO9TietDwBoBEBpxr6hbg26t3snenrcC1K/wbfr19H2XT8RTxLCyT85Kcnps2d1jxoYNCxo3vfJvFwJRAd+PkS79u+l7buyiUW+IGsRvf7eTHr8heeo8+P9iCdPMXrmokgZ8e04s1886IjniYycA/6jD8ASZ7i7aQPiWXF7DRtMwya8RC9MfYXemDtbGn2YuXQJ8Wg1HiIbebNYt2XvvObNT7Z9/f13V9fj9T//ajktyPqM5i7KpPFvT5P2/b9jRxHPkHxfn26U2rElJTa3VgScxtzsEYAMm6U8XXu6udO1OwkyiAAMiADidYBbGiQTj0Ks0Sr96rtep9bU4uGu17z5uQVu05Zcl6cduz5FW3ge7znHu36Dzm2lqMTsCGDGR/OIOx/jPV+vrA8A2AAAXnC2514ZZ0kH4MjXJtBN9WoBADJ+DgDIFIwXRGnWNXIWoJXr1pjeGcp9Il2HPCqN7DTrWp12HAAAADC8dmQR8pBqs1+HfjlM/OyB00Rp5vkCAACAoQLh9vfMj+ZZkol51YbvqW6HloZen5liNeJYAAAAYKhAmvd6kLaa/Px/JNLgx4A5BZkRwnHLPgEAAMAwgfCj1TzJaX5hQUSTpv3PLyigZyf/Q/PgJbcIXe46AAAAwDAANOjSlnbszjZN9CUPxAOgugweYNi1yQnKab8DAACAISL5U71a9PaCuSU1aernr75bLT2v4TRBmn2+AAAAYAgAmvd6gE6dOW2q6CMH4+cc3l7wPvHoQ7MF5bTjAQAAgO4iqZpRj1asXR3Ro+n/+TFtzjzkNDFacb4AAACgq1D46ciX3phC/DSkVa/1Wzej9z9GvwYAYiwoK+jstGPy48K9hw+hnMM/U7FF6ueZnzntmNPKzqrzBQAAAF3Ewu3th556jPYcPGCR9C8f9shvv0r5GawSlNOOCwAAAJoBwDV/23496fvNmywVPx/85bde13w9ThOxlvMFAAAAzYJp07cHbdi2xXLx7zuUI039rkUQXtsWAAAANAGg57DBtPWnnZaLn09g7PQpdHP92pquBwCAIOBAZfhARVEgfsR35KsT6LBNZlbm7EmccclrAtZ6vYgAynB2rQXstu05NXqjB9tLuQW5x90Or1Nnzkj5F83KbegmmwIAAEDMtSY/Wff3Uc9YkttfDjSc5fjLNd+i7a/SjwEAlQXnplqgrGvhcf2tHulO73wynzjNtp1eR48fo4efGRIzxMq6Vq8tBwAAAFnx8CSpPAHKpJnTpbkR7Tb5Cc9v8NaCOUj6qcGHAQANhefW2oLv6/PsR8+9Mp725Byg8xbM5hNLlMFpxjmbslvtYMZ1AQAAwFUB8S00nhGIe/d/3L2LuH1t11fO4UPETxyaIRI3HwMAAAAkEXHuvuETx9LmH7dLU4fZVfh8XpxgdMDzw+nGtJoAgEb/BQA0FqBbaoc7G9WhUVMmSiP6CgsLbav/k3l5NGrKJLqjYQrEr4PvAgA6FKJbIMC9/fd0aSe1/Xfu2W27JgDf739t9gz6S9MGEL9OfgsA6FSQboEAXweDgDvXnn9tIu07mCM1Caye4fh8fj6Ne3sa3dEINb+evgYAAACKtSmH2o+OfoZWb/iBOPw2GwSXiovp6LFj1HfE04rnqacovLQvAAAAiElYic0b0pCXR9NX362i4ydPmtJHUHihkDZu30q9hz+BDj+D/BQAMKhg3VqL1GrdlB4bM4IWLl1Cx3ONAwGH/Dztecs+D0ljEtxanlZfFwAAAMQUAZR0VB4oxH0E3Z4cSJnLlpDeIwTzTp+Sevp5GnQ+Vslj47Oga3kAAACAaodicVZJT6P2A3rTNz+sk+b/4za72hcPPOK7D50e74fn+k3ySwDApIJ2e81VqU4SNenWkT74/FMpKWhRHI8K82PF+w8dpMnvvIVbfCb7IwBgcoG7HQQ8Oq9Nvx40d1Em7Tt0kC5evKgYEPx24jh9uPhzqa2PiTz0De9j8TUAAABQ3QRQcjCeGLTzoP40dc4s6bmC6IiA5w1Ytf57GjhmhNSMUNoXlhkHBl9ADJ5AARtXwF4vW37GIKN7Jxr31lQpfRi38/lBo2ETxlJax1bETQevl5FV18/a9/lFYZNVJ4Djegc8tzQIkdiuOfUfOYzEdn+TRhvC/tban7XvqxAS1sAQ1hoC5Y/yt8IHWPu+CqIw34qD45hweviAtT7A2uc+gDEwhLWGQPmj/K3wAdY+A6CvFQfHMeH08AFrfSAQSnzIV14M1k0QhWIYw1pjoPxR/ib7QHH5WtVTfIHUxKr+kLDR5IPj1g/GH8AHLPQB1jxr3+drWPvmgCjMBABQA8EHvOMDrHnWvs+Xmlq+YlgYkCAKRXAA7zgAbO1pWxex5ln7Pn4FQtXTE8TgHjiFp50CIbmFIbm52gvuYc1L4uc/Fesk3RVIwXgAc40A2KC8rfGBimFhtq9O8LarAOAPfm4GhBNzYRRrjIJyR7mb4gPhxFzW+h/Ez18qiUJyQBTWmnISngm14NTwJ1v5QHFAFFaz1q8BgC8j4zq/KEwOhIR8GM1WRkPbHBWGLj4QCCeeC4QSx7HWrwWAz+fjgQEJYeEAAAAAwAdc6ANh4YA0+KdU9fOPXXzl/KIwBcZ3ofFRi+pSizpZG6xt1ris/qUFonB7gpiY4+QLxbkDYPCBaB9IzPGJwu3K4r+y1C8KgxPCQgEKMboQ8R0+4UAfCAsFrOmYxC+tlJx8hz85mAVjO9DYCPU9H+pH65a17EtOviN2AHTxlasYEloFwkJ29M7wHVCADzjHBwJhYbs/pXqLstv+0XgIBv3+ZGFoIBw8BYM7x+CwFWz1uw8Ej/uThUG+YNAfLe+Yvt+alHRDQrjaNIwNgFP97lQoCyeUhaTZcLVprOGYxC63UoJYuUpCWMh0wkXjHCFO+MAVH5A0W7mKnK7j+t2fVC0pEEpcjsKFwOAD9vcB1iprNi6Rl7Vy+dqJ9QJhpBCHAOwvAC/biDXKWi1Lz/Ev7+IrJ0EAkQBuM+FWoy19gGt+SfxljvaLX/5Xt+DQgvsE0DGImtDLNa2drv1yh5+QqXvYf1X1UR8udwxWm4ZbhICAnYTgxXORNBiuNo01GSVTY7/y7YXL4wQwWMiLjodrth7+0iCfZOFpzbf6VKMiGPTziEFp2DCeHbBluxBCtV6outuAx/YnB7OkEX5qB/moFn30htzhwM8O8ANEeIoQEEAHocE+kJgjPdjDY/uN7OyL1nlM30XhdimfQFg4gE5CF9Y8ELfB4i7VZ4o5kw8n6pGe54/1kd6YBGvESny7sFb1FCm9GOcYRKJRK5wGx3QDrMKJuZzDj9N4SZl8bFfjKwEkI+M6Tj7IGUg5DfGVeQcw+YgbHBPXYCRgi1grrBnWjpTAUy6Hn5L+bLWsTvA2noiAZyPhKYmuzEWICUkhJCOF5KR9F0tz9YnCTEkjPGlHdN5+Wwla7cnwVEQ8F2FqYlWelZinJuc5yiuIwvwKIWGNXxQ2BcTgCd17TSE0J4nBtefKvs0+zr7OPs++zxqQtMATdfJcfZHputRqLM7t/g+BO6+GJ2kzxwAAAABJRU5ErkJggg==;" vertex="1" parent="33">
                    <mxGeometry x="180" y="168.68" width="38.68" height="38.68" as="geometry"/>
                </mxCell>
                <mxCell id="58" value="Django Backend" style="text;html=1;strokeColor=none;fillColor=none;align=center;verticalAlign=middle;whiteSpace=wrap;rounded=0;fontColor=#1A1A1A;" vertex="1" parent="33">
                    <mxGeometry x="220" y="174.68" width="60" height="30" as="geometry"/>
                </mxCell>
                <mxCell id="46" value="" style="edgeStyle=none;html=1;fontColor=#9999FF;strokeColor=#1A1A1A;" parent="1" source="29" target="31" edge="1">
                    <mxGeometry relative="1" as="geometry"/>
                </mxCell>
                <mxCell id="29" value="" style="outlineConnect=0;dashed=0;verticalLabelPosition=bottom;verticalAlign=top;align=center;html=1;shape=mxgraph.aws3.users;fillColor=#D2D3D3;gradientColor=none;" parent="1" vertex="1">
                    <mxGeometry x="645.25" y="170" width="66" height="63" as="geometry"/>
                </mxCell>
                <mxCell id="48" style="edgeStyle=none;html=1;entryX=1;entryY=0.25;entryDx=0;entryDy=0;strokeColor=#1A1A1A;fontColor=#9999FF;" parent="1" source="21" target="38" edge="1">
                    <mxGeometry relative="1" as="geometry"/>
                </mxCell>
                <mxCell id="49" value="&lt;font color=&quot;#1a1a1a&quot; style=&quot;font-size: 48px;&quot;&gt;CookBuddy&lt;/font&gt;" style="text;html=1;strokeColor=none;fillColor=none;align=center;verticalAlign=middle;whiteSpace=wrap;rounded=0;fontColor=#9999FF;" parent="1" vertex="1">
                    <mxGeometry x="217.5" y="100" width="375" height="51" as="geometry"/>
                </mxCell>
                <mxCell id="50" value="&lt;font style=&quot;font-size: 14px;&quot;&gt;AI Based Recipe Recommendation System&lt;/font&gt;" style="text;html=1;strokeColor=none;fillColor=none;align=center;verticalAlign=middle;whiteSpace=wrap;rounded=0;fontSize=48;fontColor=#1A1A1A;" parent="1" vertex="1">
                    <mxGeometry x="225" y="134" width="360" height="40" as="geometry"/>
                </mxCell>
                <mxCell id="54" value="&lt;font color=&quot;#1a1a1a&quot;&gt;Users&lt;/font&gt;" style="text;html=1;strokeColor=none;fillColor=none;align=center;verticalAlign=middle;whiteSpace=wrap;rounded=0;" vertex="1" parent="1">
                    <mxGeometry x="690" y="220" width="60" height="30" as="geometry"/>
                </mxCell>
                <mxCell id="55" value="CloudFront (CDN)" style="text;html=1;strokeColor=none;fillColor=none;align=center;verticalAlign=middle;whiteSpace=wrap;rounded=0;fontColor=#1A1A1A;" vertex="1" parent="1">
                    <mxGeometry x="685" y="413" width="70" height="27" as="geometry"/>
                </mxCell>
                <mxCell id="56" value="S3&lt;br&gt;(Frontend Hosting)" style="text;html=1;strokeColor=none;fillColor=none;align=center;verticalAlign=middle;whiteSpace=wrap;rounded=0;fontColor=#1A1A1A;" vertex="1" parent="1">
                    <mxGeometry x="670" y="545" width="80" height="60" as="geometry"/>
                </mxCell>
            </root>
        </mxGraphModel>
    </diagram>
</mxfile>